HIERARCHY
ROOT Hips
{
  OFFSET -69.4423 88.0299 51.6846
  CHANNELS 6 Xposition Yposition Zposition Zrotation Xrotation Yrotation
  JOINT Spine
  {
    OFFSET 12.0259 -0.162853 1.93176e-005
    CHANNELS 3 Zrotation Xrotation Yrotation
    JOINT Spine1
    {
      OFFSET 15.3169 -0.0121909 0
      CHANNELS 3 Zrotation Xrotation Yrotation
      JOINT Spine2
      {
        OFFSET 15.3176 -0.0121922 0
        CHANNELS 3 Zrotation Xrotation Yrotation
        JOINT Neck
        {
          OFFSET 19.9142 1.56236 0
          CHANNELS 3 Zrotation Xrotation Yrotation
          JOINT Head
          {
            OFFSET 6.92646 0 0
            CHANNELS 3 Zrotation Xrotation Yrotation
            End Site
            {
              OFFSET 20.7666 0 0
            }
          }
          JOINT LeftShoulder
          {
            OFFSET -4.94072 -1.14703 8.14416
            CHANNELS 3 Zrotation Xrotation Yrotation
            JOINT LeftArm
            {
              OFFSET 14.108 0 -2.74767e-005
              CHANNELS 3 Zrotation Xrotation Yrotation
              JOINT LeftForeArm
              {
                OFFSET 28.5802 -0.0783412 -0.0284884
                CHANNELS 3 Zrotation Xrotation Yrotation
                JOINT LeftHand
                {
                  OFFSET 27.092 0 0
                  CHANNELS 3 Zrotation Xrotation Yrotation
                  End Site
                  {
                    OFFSET 9.55928 -0.186424 0.145352
                  }
                }
              }
            }
          }
          JOINT RightShoulder
          {
            OFFSET -7.15748 -1.33027 -6.24935
            CHANNELS 3 Zrotation Xrotation Yrotation
            JOINT RightArm
            {
              OFFSET 14.108 0 1.82997e-005
              CHANNELS 3 Zrotation Xrotation Yrotation
              JOINT RightForeArm
              {
                OFFSET 28.5802 -0.0707221 2.30684e-005
                CHANNELS 3 Zrotation Xrotation Yrotation
                JOINT RightHand
                {
                  OFFSET 27.092 0 -1.30073e-005
                  CHANNELS 3 Zrotation Xrotation Yrotation
                  End Site
                  {
                    OFFSET 9.55929 -0.186417 -0.145354
                  }
                }
              }
            }
          }
        }
      }
    }
  }
  JOINT LeftUpLeg
  {
    OFFSET 0.00499725 -0.534999 8.837
    CHANNELS 3 Zrotation Xrotation Yrotation
    JOINT LeftLeg
    {
      OFFSET 39.9035 -0.00124594 0.000252775
      CHANNELS 3 Zrotation Xrotation Yrotation
      JOINT LeftFoot
      {
        OFFSET 39.6689 0 0
        CHANNELS 3 Zrotation Xrotation Yrotation
        JOINT LeftToe
        {
          OFFSET 10.1624 13.6296 0
          CHANNELS 3 Zrotation Xrotation Yrotation
          End Site
          {
            OFFSET 8.38147 0 0
          }
        }
      }
    }
  }
  JOINT RightUpLeg
  {
    OFFSET 0.00499725 -0.535 -8.837
    CHANNELS 3 Zrotation Xrotation Yrotation
    JOINT RightLeg
    {
      OFFSET 39.9036 -0.000268477 0.000106433
      CHANNELS 3 Zrotation Xrotation Yrotation
      JOINT RightFoot
      {
        OFFSET 39.6689 1.17892e-005 0
        CHANNELS 3 Zrotation Xrotation Yrotation
        JOINT RightToe
        {
          OFFSET 10.1624 13.6296 0
          CHANNELS 3 Zrotation Xrotation Yrotation
          End Site
          {
            OFFSET 8.38147 0 0
          }
        }
      }
    }
  }
}
MOTION
Frames:	20
Frame Time:	0.0333333
99.8692 88.3313 -41.829 93.9106 45.8672 0.124818 0.0624708 -0.0419471 -0.194519 0.124801 -0.0836305 -0.388814 0.124803 -0.0836379 -0.388819 -16.5627 -1.30474 -11.0915 42.0167 -0.305673 11.909 -165.498 -3.32987 -93.6927 -31.5524 4.13012 86.2591 -19.1451 1.68232 -12.8142 4.16455 -78.7149 6.47868 -165.511 -5.41109 74.2117 -18.9543 -4.86944 -86.1021 -22.6269 -2.62893 14.0802 2.89943 82.0809 -2.77353 -6.39843 -0.0653463 176.401 -20.7749 1.0093 -1.20539 5.55375 4.80519 0.738027 90 6.36111e-015 -0 -12.1397 0.180973 -178.382 -36.4243 -0.551922 0.203077 9.41858 4.77027 -1.05862 90 -4.45278e-014 -3.49861e-014 
99.6105 88.233 -41.8591 93.8357 45.9984 0.114772 0.112845 0.00212303 -0.215005 0.225719 0.00432469 -0.428628 0.225714 0.00431379 -0.428636 -16.4988 -1.3362 -10.7376 42.8673 -0.691712 11.3219 -165.532 -3.23052 -93.3538 -30.6056 4.24342 86.0335 -19.1878 1.69604 -12.8259 4.63264 -78.2067 6.83442 -165.547 -5.28315 74.573 -19.4497 -5.11406 -86.3644 -22.9522 -2.69309 14.2438 3.11382 82.8008 -2.99486 -6.63113 -0.602986 176.479 -21.514 1.01279 -1.19331 6.00879 4.2321 0.726279 90 6.36111e-015 9.54166e-015 -11.8563 -0.282218 -178.359 -36.3299 -0.552683 0.198048 9.72827 4.38186 -1.11418 90 1.74931e-014 6.36111e-015 
99.3072 88.1342 -41.9666 93.6868 46.1479 -0.00711642 0.161959 0.072119 -0.17578 0.324162 0.14422 -0.351591 0.324147 0.144233 -0.351601 -16.0279 -1.3759 -11.0203 43.4249 -0.509017 11.712 -166.023 -3.28103 -93.6849 -30.3024 4.61238 85.8814 -19.7508 1.78319 -13.1091 4.37836 -77.9186 6.65074 -166.031 -5.31738 74.2993 -19.4466 -5.23527 -86.5204 -22.9934 -2.69205 14.2408 2.96439 82.7986 -2.78923 -7.10932 -0.877346 176.863 -22.672 1.02012 -1.16093 5.93556 4.25782 0.729498 90 1.11319e-014 1.27222e-014 -11.3941 -0.381005 -177.984 -35.9245 -0.561202 0.192742 9.8139 3.9921 -1.13346 90 -2.38542e-014 -1.90833e-014 
98.7254 88.0655 -42.1672 92.7941 45.9499 -0.655195 0.309205 0.157615 0.108881 0.618129 0.316295 0.217076 0.618118 0.316294 0.21707 -15.8939 -1.2634 -11.0752 44.364 -0.409211 11.4653 -166.128 -3.14701 -93.8102 -30.9089 4.99492 85.7984 -19.9554 1.80332 -13.2046 5.31835 -80.1203 7.57313 -166.143 -5.17734 74.1903 -19.6532 -5.35795 -86.4427 -22.9029 -2.66915 14.1861 2.88801 82.7005 -2.71134 -7.57911 -1.62192 178.295 -25.0313 1.02152 -1.11473 6.13731 3.40717 0.735347 90 9.54166e-015 1.27222e-014 -10.014 -0.495785 -176.29 -34.7374 -0.589611 0.188365 9.77935 4.10957 -1.13287 90 1.90833e-014 2.8625e-014 
98.3606 88.0104 -42.2549 92.5536 45.8272 -0.689087 0.389734 0.310542 0.17171 0.778547 0.622678 0.341481 0.77854 0.622672 0.34147 -15.415 -1.38991 -11.171 44.3831 -0.785696 11.2939 -166.646 -3.22017 -93.9719 -29.5637 5.3818 86.0812 -20.9473 1.97077 -13.7275 4.17019 -79.6284 6.60801 -166.627 -5.20685 74.1119 -19.5433 -5.48589 -86.3327 -23.004 -2.69242 14.2402 3.07397 83.1316 -2.90537 -8.55127 -1.98693 178.465 -27.341 1.01783 -1.0593 6.26073 2.36068 0.708817 90 -6.36111e-015 9.54166e-015 -9.41751 -0.875434 -176.022 -34.1538 -0.599947 0.175166 9.74476 3.20323 -1.13867 90 7.15625e-015 1.59028e-014 
98.0898 87.9762 -42.4177 92.6101 46.1842 -1.24401 0.465719 0.381067 0.263719 0.92972 0.764748 0.524507 0.929713 0.764733 0.524495 -15.3004 -1.51405 -11.0554 44.6566 -1.04943 11.2764 -166.779 -3.3013 -93.8622 -28.8178 5.64373 85.9521 -21.2056 2.01707 -13.8547 4.8024 -79.4686 7.12417 -166.745 -5.27656 74.2592 -19.6597 -5.39669 -86.3912 -23.1835 -2.73212 14.335 3.25171 83.3845 -3.09306 -10.5781 -2.53739 178.917 -30.8624 1.00784 -0.964 6.3831 2.3125 0.701232 90 1.59028e-015 6.36111e-015 -8.90137 -1.37739 -175.467 -33.4041 -0.617391 0.157605 9.81923 2.4882 -1.1603 90 -1.82882e-014 -1.27222e-014 
97.6826 88.1809 -42.5666 92.2646 46.4551 -1.51189 0.580492 0.399134 0.424952 1.15805 0.802953 0.846033 1.15805 0.80295 0.846023 -14.9387 -1.51831 -11.1286 44.5393 -1.16925 11.062 -167.137 -3.2537 -93.9871 -29.5043 5.93058 85.9591 -21.2719 2.01688 -13.8733 6.20881 -80.8314 8.54904 -167.106 -5.24349 74.1517 -20.1119 -5.59944 -86.0493 -23.4577 -2.79566 14.4929 3.61616 84.0077 -3.48138 -13.6744 -1.74444 179.804 -36.1352 0.962627 -0.778083 4.73621 4.40602 0.694888 90 -1.90833e-014 -1.27222e-014 -7.74683 -1.69019 -174.709 -31.8643 -0.654574 0.147429 9.20256 2.4307 -1.07831 90 -5.56597e-015 -1.27222e-014 
97.1821 88.2858 -42.6244 91.5176 46.6429 -1.82213 0.788602 0.50492 0.647948 1.57155 1.01891 1.28912 1.57155 1.01892 1.28911 -14.8248 -1.56637 -11.2582 44.6361 -1.29293 11.0532 -167.251 -3.30982 -94.1172 -28.2636 5.68468 85.9246 -21.2222 2.01962 -13.8676 5.83096 -81.1598 8.10784 -167.225 -5.31964 74.0075 -20.3349 -5.59684 -85.6405 -23.7613 -2.85815 14.6442 4.26176 85.2036 -4.11 -16.5906 -1.70225 -179.158 -41.7143 0.889285 -0.611012 3.32038 4.51645 0.645318 90 -7.95139e-015 -1.59028e-014 -6.16771 -1.81395 -173.579 -30.2321 -0.693891 0.142471 8.80049 2.326 -1.01916 90 -3.10104e-014 -3.18055e-014 
96.7059 88.3874 -42.5059 90.941 46.8152 -2.01292 1.08329 0.668388 0.780615 2.15765 1.35193 1.54878 2.15764 1.35193 1.54877 -15.1502 -1.66508 -11.2428 44.3365 -1.46143 11.209 -166.929 -3.469 -94.0633 -27.5663 5.33939 85.6272 -21.5163 2.0814 -14.0341 4.83167 -79.9466 7.19824 -166.884 -5.51002 74.0602 -20.2289 -4.70445 -85.273 -23.9601 -2.90776 14.7536 5.06434 85.8211 -4.94858 -19.3728 -1.52956 -178.329 -46.0677 0.802766 -0.509545 3.17704 4.67424 0.600319 90 -7.95139e-015 -3.18055e-015 -4.4376 -2.25725 -172.888 -28.1867 -0.730229 0.141262 7.87324 1.97545 -0.914531 90 1.74931e-014 2.22639e-014 
96.1016 88.5427 -42.3471 90.9917 46.0791 -2.10449 1.05872 0.882233 0.704306 2.10689 1.77776 1.39261 2.10688 1.77774 1.39259 -14.3709 -1.71021 -10.9309 44.3113 -1.2078 11.4214 -167.701 -3.36873 -93.8166 -26.3347 6.26419 85.4583 -21.4913 2.07332 -13.9833 3.26002 -79.1085 5.64882 -167.631 -5.33524 74.3493 -21.3751 -4.98611 -85.744 -24.2227 -2.95712 14.8824 6.01097 86.5613 -5.893 -21.5394 -1.02617 -177.875 -46.8197 0.755738 -0.531954 3.73284 5.1606 0.614014 90 1.43125e-014 9.54166e-015 -3.2548 -1.80964 -172.671 -26.3521 -0.756256 0.1531 7.32994 1.48429 -0.878167 90 -7.95139e-015 -0 
95.4855 88.6106 -42.0167 90.9484 45.8373 -2.0198 0.765379 0.855821 0.813239 1.51878 1.72283 1.6154 1.51878 1.72282 1.61539 -13.2087 -1.4175 -10.6698 45.431 -0.911645 10.4785 -168.887 -2.86889 -93.7687 -24.9303 8.28903 87.1432 -21.3449 2.0516 -13.8671 5.31471 -80.6869 7.58218 -168.77 -4.6996 74.4443 -21.9356 -6.60729 -85.8833 -23.9956 -2.91444 14.8082 4.45934 85.334 -4.33926 -22.9245 -0.505622 -177.582 -44.8024 0.747974 -0.650975 4.19424 3.73162 0.598588 90 -4.45278e-014 -4.45278e-014 -2.0226 -1.63102 -172.599 -24.8951 -0.776024 0.171667 7.17141 1.67151 -0.854412 90 -2.46493e-014 -2.8625e-014 
94.7524 88.7206 -41.5664 91.0088 45.7197 -2.07623 0.873823 1.11082 0.73079 1.73389 2.23297 1.44512 1.73389 2.23296 1.44511 -13.3404 -1.70954 -10.5732 45.6496 -1.21606 11.0175 -168.807 -3.22364 -93.618 -24.9718 8.98562 86.8786 -21.5063 2.07752 -13.9115 5.24974 -80.7323 7.5962 -168.658 -4.99079 74.6446 -22.445 -6.06293 -86.1874 -24.5183 -3.03238 15.0815 6.12256 86.5696 -6.02604 -23.9004 -0.616677 -177.469 -40.8898 0.752138 -0.856616 3.90606 0.856733 0.511694 90 -1.03368e-014 -6.36111e-015 -0.661533 -0.73299 -172.302 -22.9595 -0.794632 0.21033 6.6495 2.11609 -0.781857 90 1.51076e-014 9.54166e-015 
94.0659 88.6828 -41.0953 91.4221 46.181 -2.62974 1.04058 1.28808 0.76573 2.06473 2.59024 1.50867 2.06471 2.59021 1.50865 -13.9714 -2.06134 -11.0243 45.7012 -1.62669 11.8737 -168.266 -3.83694 -93.9218 -24.5959 8.9155 86.7713 -21.4533 2.07033 -13.8765 4.23725 -79.7813 6.60405 -168.092 -5.56421 74.3344 -22.0142 -4.84646 -85.92 -25.1573 -3.18045 15.4089 7.21305 87.0898 -7.13544 -24.7506 -1.60274 -177.418 -35.4553 0.745478 -1.10161 2.17745 -1.29046 0.283024 90 -3.4191e-014 -4.45278e-014 0.392809 -1.15448 -171.986 -21.6519 -0.808181 0.218476 6.55497 1.61796 -0.82108 90 -9.54166e-015 -0 
93.365 88.8215 -40.5129 91.9189 46.4309 -2.99378 1.06237 1.34292 0.762485 2.10766 2.70011 1.50071 2.10765 2.70013 1.5007 -13.9626 -2.13974 -11.1459 45.21 -1.6093 12.1785 -168.304 -3.99579 -94.0021 -24.5776 9.33466 86.8052 -20.8812 1.976 -13.5503 4.41842 -79.4625 6.73145 -168.122 -5.68278 74.2498 -22.7595 -4.66787 -85.8029 -25.9718 -3.35923 15.8138 6.8279 87.2997 -6.71235 -25.9859 -1.46177 -177.387 -30.204 0.705237 -1.32125 -0.234095 -1.47661 0.0873381 90 -1.82882e-014 6.36111e-015 1.78608 -1.27632 -171.935 -19.5195 -0.827333 0.255585 6.26001 1.63869 -0.79967 90 1.19271e-014 9.54166e-015 
92.5276 88.7952 -39.8568 92.0559 46.6941 -3.37631 1.10868 1.38649 0.865205 2.19724 2.78985 1.70431 2.19725 2.78983 1.70431 -13.9568 -2.24165 -11.4643 44.7014 -1.88539 12.2161 -168.369 -4.20228 -94.2891 -23.2402 9.55045 87.2293 -20.5067 1.92607 -13.356 3.57872 -78.5698 5.92225 -168.177 -5.8507 73.9665 -24.2213 -4.85626 -85.532 -26.9908 -3.61515 16.3683 12.5148 88.4457 -12.4243 -26.8212 -2.14339 -177.206 -25.2426 0.656129 -1.50774 -1.12606 -0.881743 0.140935 90 -1.2921e-014 -9.54166e-015 3.41423 -1.05596 -171.477 -17.4971 -0.84606 0.285231 5.75014 1.49183 -0.769995 90 4.77083e-015 3.18055e-015 
91.573 88.6824 -39.1814 92.305 46.5621 -3.98052 1.22034 1.54885 0.875577 2.4182 3.11632 1.71905 2.41819 3.1163 1.71904 -14.2272 -2.39222 -11.182 44.2552 -2.10824 12.377 -168.107 -4.36825 -93.9694 -23.1705 9.83372 86.9635 -20.5173 1.92855 -13.3377 3.8093 -79.3471 6.21374 -167.887 -5.99861 74.3103 -25.1394 -4.07146 -85.3339 -27.6573 -3.77868 16.7102 18.5355 88.918 -18.4613 -27.5999 -2.57181 -176.756 -21.0651 0.58729 -1.6583 -1.84842 -0.50579 0.187925 90 -7.15625e-015 2.22639e-014 4.9879 -1.04343 -170.962 -15.5787 -0.862702 0.310696 5.44951 1.25378 -0.767736 90 -3.18055e-015 3.18055e-015 
90.5719 88.5156 -38.3975 92.4409 46.2817 -4.47468 1.27388 1.72116 0.949016 2.52079 3.46324 1.86092 2.52078 3.46325 1.86092 -14.2874 -2.42532 -11.1848 44.1984 -2.15261 12.4169 -168.067 -4.44256 -93.958 -22.6818 10.1307 87.2311 -20.1874 1.88159 -13.1555 4.07504 -79.5073 6.47176 -167.824 -6.04349 74.3058 -25.698 -3.53195 -84.958 -27.9579 -3.85874 16.8776 20.608 89.0222 -20.549 -28.2417 -2.47692 -176.267 -17.9246 0.509687 -1.76768 -3.07375 -1.04528 0.0170885 90 5.96354e-015 -0 6.57817 -0.397902 -170.468 -13.6884 -0.876397 0.342823 5.08321 1.18951 -0.74304 90 -3.97569e-015 -6.36111e-015 
89.4242 88.3837 -37.3447 92.2224 45.6285 -4.51454 1.40268 1.96651 0.971597 2.77431 3.95648 1.89655 2.7743 3.95646 1.89655 -14.23 -2.48611 -11.3534 44.0245 -2.23232 12.5417 -168.139 -4.5617 -94.0977 -22.0398 10.1456 87.3468 -19.943 1.84831 -13.0231 3.64851 -78.5927 6.01815 -167.877 -6.12371 74.1398 -26.2893 -2.99888 -84.4233 -28.237 -3.92699 17.0137 22.0915 89.0958 -22.0368 -28.3073 -2.43679 -175.94 -15.8834 0.454248 -1.84049 -3.38 -2.11614 -0.218915 90 -1.86858e-014 3.18055e-015 8.83804 0.307414 -170.398 -11.3075 -0.884953 0.384922 4.47211 0.872588 -0.714167 90 -2.14687e-014 -1.27222e-014 
88.3375 88.1512 -36.1937 92.5889 45.2096 -4.9556 1.41256 2.09434 0.935045 2.79356 4.21138 1.8201 2.79356 4.21138 1.82008 -14.043 -2.48446 -11.07 43.9721 -2.1457 12.5267 -168.283 -4.48211 -93.7954 -22.2689 10.2757 87.1032 -19.2629 1.74801 -12.6411 4.05121 -79.0077 6.4576 -168.017 -6.02041 74.397 -26.7149 -2.35642 -84.2802 -28.2726 -3.9306 17.0239 16.7328 88.8375 -16.6865 -28.4381 -3.30771 -175.826 -14.703 0.414681 -1.87787 -3.88384 -3.61424 -0.5931 90 -7.95139e-015 9.54166e-015 10.4437 0.721836 -170.344 -9.53152 -0.888517 0.419327 4.12626 0.901368 -0.680361 90 -9.54166e-015 -0 
87.1918 87.9649 -34.999 93.2913 44.4967 -5.59441 1.31893 2.25636 0.902844 2.60515 4.53327 1.75564 2.60515 4.53323 1.75563 -13.9769 -2.51007 -10.8727 44.3612 -2.33786 12.2688 -168.359 -4.46678 -93.6187 -21.9511 10.826 87.3075 -19.2933 1.75196 -12.6378 4.20252 -78.7047 6.58021 -168.061 -5.95232 74.5957 -26.9901 -1.91288 -84.2314 -28.0496 -3.87653 16.9117 16.8838 88.8601 -16.8166 -28.3862 -3.46042 -175.477 -14.0136 0.403111 -1.87926 -4.33138 -2.69909 -0.442113 90 7.95139e-016 3.18055e-015 11.0154 1.34833 -170.445 -9.37726 -0.888905 0.420323 4.28595 0.609869 -0.720178 90 -2.94201e-014 -3.18055e-014 
